<?xml version="1.0" standalone="yes"?>
<svg xmlns="http://www.w3.org/2000/svg" width="512" height="512">
<path style="fill:#ffffff; stroke:none;" d="M0 0L0 512C5.413 512 14.6748 513.804 19.581 511.397C29.828 506.368 20.9885 484.846 22.5887 477C24.2065 469.068 31.5418 462.765 34 455C39.2367 457.031 47.5512 458.781 51.6427 462.699C55.1615 466.069 51.8633 473.04 50.8735 477C49.9024 480.884 49.4852 486.324 47.0625 489.606C44.5848 492.963 39.3275 494.317 36 496.764C30.4332 500.858 25.6519 506.162 22 512L512 512L512 0L464 0C458.533 0 449.057 -1.80402 444.21 1.02777C436.039 5.80154 427.973 25.4997 424 34L456 3L439 30L479 4C470.378 15.2746 456.916 24.2338 446 33.25C402.645 69.0581 350.91 91.7196 304 122.344C274.89 141.349 244.178 161.966 219 186.039C185.238 218.321 158.277 256.603 130.629 294C108.224 324.304 88.176 356.706 68.8002 389C65.0387 395.269 56.326 419.405 48.0031 418.793C39.8757 418.196 41.0004 403.651 41 398C40.9985 375.154 46.4222 354.179 51 332L52 332L57 371L58 371C57.8693 355.217 55.3742 332.919 67 320C63.8754 330.473 64.1565 343.221 65 354L66 354C69.5956 325.697 73.413 292.777 86.2701 267C99.4894 240.497 122.336 218.664 143 198C143 211.728 142.477 228.572 149 241L150 241C149.59 221.159 146.896 203.628 152.721 184C161.196 155.44 183.455 134.467 205 114.925C218.771 102.434 234.065 89.0096 251 81C246.659 94.3396 242.009 107.83 242 122L243 122C246.11 83.9278 277.781 57.1459 313 47C305.937 60.2629 301.184 77.0239 300 92L301 92C308.897 73.0316 320.501 47.1491 336.174 33.3904C343.253 27.1758 354.358 23.6852 363 20.2006C385.438 11.1529 411.546 1.50485 436 1C425.972 -3.2077 408.896 0 398 0L309 0L0 0z"/>
<path style="fill:#010103; stroke:none;" d="M301 92L300 92L313 47C304.764 48.4681 297.302 53.9014 290 57.7801C263.855 71.6677 244.383 90.2694 243 122L242 122L251 81C235.989 85.7833 221.765 99.5047 210 109.579C181.842 133.693 154.444 160.732 149.289 199C147.342 213.447 149.384 226.643 150 241L149 241C143.741 227.348 143 212.521 143 198C134.213 204.19 126.989 213.047 119.831 221C107.428 234.781 94.612 249.275 86.2701 266C73.613 291.376 68.2209 325.898 66 354L65 354L67 320C54.3208 329.328 57.7231 357.586 58 371L57 371L52 332L51 332C44.9058 353.635 41 375.497 41 398C41 403.5 39.5598 417.723 47.0509 418.847C56.7608 420.305 64.0441 397.926 68.1998 391C86.7967 360.005 106.488 329.745 127.025 300C154.839 259.718 185.074 218.542 221 185.09C253.175 155.13 291.871 130.337 329 107.05C368.248 82.4341 410.089 63.8849 446 34.081C456.147 25.6597 472.995 15.861 479 4L439 30L456 3L424 34L444 0C417.542 0.072876 389.345 9.29147 365 19C355.662 22.724 344.089 26.2884 336.174 32.6373C321.279 44.584 306.236 73.8257 301 92M74 420C90.8623 420 103.128 413.843 119 408.67C139.362 402.033 159.247 396.572 178 385.85C187.394 380.479 202.126 373.002 207 363L159 382.112L132 383.039L106 387L106 386C126.578 379.05 148.643 378.227 169 370.575C204.611 357.189 235.05 336.344 268 318L268 317L229 327.572L190 327L190 326C216.23 325.928 241.675 318.521 266 309.424C299.43 296.923 327.368 283.144 342 248L284 252.996L252 248.171L214 249L214 248C221.439 247.392 228.516 244.605 236 244.09C249.704 243.146 263.216 245.143 277 243.83C306.359 241.034 335.959 232.43 363 220.85C380.199 213.484 403.299 202.782 413 186L393 188L393 187L427 172L427 171L397 176L397 175C429.386 172.355 463.103 142.183 466 109L402 117L402 116C422.715 115.998 444.526 110.484 463 101.247C473.276 96.1088 481.757 90.3893 483 78L443 87L443 86L476 74.2438L485.972 68.3627L487 50L457 61C464.927 55.6521 481.22 49.1745 485.972 40.8156C488.697 36.0238 485.711 23.9816 479.816 22.4614C476.765 21.675 473.914 25.184 472 27.0116C466.21 32.5399 460.147 37.7889 454 42.9197C428.901 63.8711 402.592 83.5622 376 102.573C340.06 128.265 302.263 150.528 268 178.614C210.178 226.011 160.1 283.85 118.667 346C103.1 369.349 84.87 394.029 74 420M48 436L60 441C111.544 330.783 194.074 229.163 290 154.424C328.942 124.083 371.832 99.3471 412 70.7091C428.485 58.9556 450.647 46.1505 463 30C452.78 34.2992 443.48 42.705 434 48.5756C413.881 61.0346 393.295 72.8217 373 85C321.178 116.096 269.4 148.73 225 190.09C175.214 236.467 133.557 294.524 97.5756 352C80.7181 378.928 60.2961 406.622 48 436z"/>
<path style="fill:#ffffff; stroke:none;" d="M455.667 61.3333L456.333 61.6667L455.667 61.3333M439 87L439 88L443 88L439 87M435 88L436 89L435 88M393.667 176.333L394.333 176.667L393.667 176.333M389 188L389 189L392 189L389 188M183.667 327.333L184.333 327.667L183.667 327.333z"/>
<path style="fill:#010103; stroke:none;" d="M478 379.424C424.72 386.485 373.019 398.441 323 418.449C264.693 441.772 210.354 471.035 149 486.373C120.799 493.424 92.6754 495.902 64 499.285C57.2026 500.088 49.6276 499.199 43.0448 501.279C39.9287 502.263 37.5701 505.641 40.4776 508.397C45.3491 513.014 60.7727 509.138 67 508.985C95.0491 508.298 123.626 502.619 151 496.789C235.947 478.699 311.229 431.374 394 406.025C416.046 399.273 439.218 394.719 462 391.421C468.527 390.475 484.705 391.225 489.377 386.262C495.35 379.918 481.01 379.025 478 379.424z"/>
<path style="fill:#ffffff; stroke:none;" d="M105 387L106 388L105 387z"/>
<path style="fill:#010103; stroke:none;" d="M40 439L36 450L58 458L62 447L40 439z"/>
<path style="fill:#010101; stroke:none;" d="M34.6667 455.333L35.3333 455.667L34.6667 455.333z"/>
<path style="fill:#010103; stroke:none;" d="M34 456L22.8681 477.09L22 509L41 492C48.1587 491.639 55.4371 470.642 52.6119 464.343C50.4045 459.422 38.7939 457.029 34 456z"/>
<path style="fill:#030103; stroke:none;" d="M36 456L37 457L36 456z"/>
<path style="fill:#010101; stroke:none;" d="M37 456L38 457L37 456M33 457L34 458L33 457M40 457L41 458L40 457z"/>
<path style="fill:#030103; stroke:none;" d="M33 458L34 459L33 458M41 458L42 459L41 458z"/>
<path style="fill:#010101; stroke:none;" d="M42 458L43 459L42 458M32 459L33 460L32 459M45 459L46 460L45 459M31 460L32 461L31 460z"/>
<path style="fill:#030103; stroke:none;" d="M46 460L47 461L46 460z"/>
<path style="fill:#010101; stroke:none;" d="M47 460L48 461L47 460M50 461L51 462L50 461M30 462L31 463L30 462z"/>
<path style="fill:#030103; stroke:none;" d="M51 462L52 463L51 462z"/>
<path style="fill:#010101; stroke:none;" d="M52 462L53 463L52 462z"/>
<path style="fill:#030103; stroke:none;" d="M30 463L31 464L30 463z"/>
<path style="fill:#010101; stroke:none;" d="M53 463L54 464L53 463z"/>
<path style="fill:#010105; stroke:none;" d="M29 464L30 465L29 464z"/>
<path style="fill:#030103; stroke:none;" d="M53 464L54 465L53 464z"/>
<path style="fill:#010101; stroke:none;" d="M28 465L29 466L28 465M53 466L54 467L53 466M27.3333 467.667L27.6667 468.333L27.3333 467.667z"/>
<path style="fill:#030103; stroke:none;" d="M52 468L53 469L52 468z"/>
<path style="fill:#010105; stroke:none;" d="M52 469L53 470L52 469z"/>
<path style="fill:#010101; stroke:none;" d="M25 470L26 471L25 470M52 470L53 471L52 470z"/>
<path style="fill:#030103; stroke:none;" d="M25 471L26 472L25 471z"/>
<path style="fill:#010101; stroke:none;" d="M24.3333 472.667L24.6667 473.333L24.3333 472.667z"/>
<path style="fill:#030103; stroke:none;" d="M51 472L52 473L51 472z"/>
<path style="fill:#010105; stroke:none;" d="M51 473L52 474L51 473z"/>
<path style="fill:#010101; stroke:none;" d="M51 474L52 475L51 474M22 475L23 476L22 475z"/>
<path style="fill:#030103; stroke:none;" d="M22 476L23 477L22 476M50 476L51 477L50 476z"/>
<path style="fill:#010105; stroke:none;" d="M50 477L51 478L50 477z"/>
<path style="fill:#030103; stroke:none;" d="M22 478L23 479L22 478M33 478L32 480L33 478z"/>
<path style="fill:#010101; stroke:none;" d="M34 478L35 479L34 478z"/>
<path style="fill:#ffffff; stroke:none;" d="M35.2099 478.971C31.1178 480.034 32.7411 486.351 36.8704 485.248C41.008 484.144 39.3431 477.897 35.2099 478.971z"/>
<path style="fill:#010101; stroke:none;" d="M37 478L38 479L37 478M50 478L51 479L50 478M22.3333 479.667L22.6667 480.333L22.3333 479.667M32 480L33 481L32 480M40 480L41 481L40 480z"/>
<path style="fill:#030103; stroke:none;" d="M49 480L50 481L49 480z"/>
<path style="fill:#010101; stroke:none;" d="M23 481L24 482L23 481z"/>
<path style="fill:#030103; stroke:none;" d="M31.3333 481.667L31.6667 482.333L31.3333 481.667z"/>
<path style="fill:#010105; stroke:none;" d="M49 481L50 482L49 481z"/>
<path style="fill:#030103; stroke:none;" d="M23 482L24 483L23 482z"/>
<path style="fill:#010101; stroke:none;" d="M49 482L50 483L49 482z"/>
<path style="fill:#030103; stroke:none;" d="M40 483L41 484L40 483z"/>
<path style="fill:#010101; stroke:none;" d="M23.3333 484.667L23.6667 485.333L23.3333 484.667M39 484L40 485L39 484z"/>
<path style="fill:#030103; stroke:none;" d="M48 484L49 485L48 484z"/>
<path style="fill:#010105; stroke:none;" d="M33 485L34 486L33 485z"/>
<path style="fill:#010101; stroke:none;" d="M38 485L39 486L38 485z"/>
<path style="fill:#010105; stroke:none;" d="M48 485L49 486L48 485z"/>
<path style="fill:#010101; stroke:none;" d="M34 486L35 487L34 486z"/>
<path style="fill:#030103; stroke:none;" d="M37 486L38 487L37 486z"/>
<path style="fill:#010101; stroke:none;" d="M48 486L49 487L48 486z"/>
<path style="fill:#030103; stroke:none;" d="M24 487L25 488L24 487M47 488L48 489L47 488z"/>
<path style="fill:#010105; stroke:none;" d="M47 489L48 490L47 489M24 490L25 491L24 490z"/>
<path style="fill:#010101; stroke:none;" d="M47 490L48 491L47 490M24 491L24 499L25 499L24 491z"/>
<path style="fill:#030103; stroke:none;" d="M44 491L45 492L44 491z"/>
<path style="fill:#010101; stroke:none;" d="M45 491L46 492L45 491M41 492L42 493L41 492M43 492L44 493L43 492z"/>
<path style="fill:#030103; stroke:none;" d="M38 494L39 495L38 494z"/>
<path style="fill:#010101; stroke:none;" d="M39 494L40 495L39 494M36 495L36 497L38 495L36 495M33 498L34 499L33 498z"/>
<path style="fill:#010105; stroke:none;" d="M24 499L25 500L24 499z"/>
<path style="fill:#010101; stroke:none;" d="M28 504L33 499L28 504z"/>
<path style="fill:#030103; stroke:none;" d="M24 501L25 502L24 501z"/>
<path style="fill:#010101; stroke:none;" d="M23.3333 503.667L23.6667 504.333L23.3333 503.667M27 504L28 505L27 504M26 505L27 506L26 505z"/>
<path style="fill:#030103; stroke:none;" d="M23 506L24 507L23 506z"/>
<path style="fill:#010101; stroke:none;" d="M22 507L23 508L22 507z"/>
<path style="fill:#030103; stroke:none;" d="M24 507L25 508L24 507z"/>
<path style="fill:#010101; stroke:none;" d="M23 508L23 510L25 508L23 508z"/>
<path style="fill:#030103; stroke:none;" d="M22 509L23 510L22 509z"/>
<path style="fill:#010101; stroke:none;" d="M21.3333 510.667L21.6667 511.333L21.3333 510.667z"/>
<path style="fill:#010105; stroke:none;" d="M22 510L23 511L22 510z"/>
</svg>
